# ProBuilder 6.0.5
# https://unity3d.com/unity/features/worldbuilding/probuilder
# 28/04/2025 12:10:15

mtllib ./ProBuilder_Stairs.mtl
o ProBuilder Stairs

g ProBuilder Stairs
v -60.09198 0.01290428 56.18815
v -59.10802 0.01290428 56.18815
v -60.09198 0.09478688 56.18815
v -59.10802 0.09478688 56.18815
v -60.09198 0.09478688 56.10762
v -59.10802 0.09478688 56.10762
v -60.09198 0.1766695 56.10762
v -59.10802 0.1766695 56.10762
v -60.09198 0.1766695 56.0271
v -59.10802 0.1766695 56.0271
v -60.09198 0.2585521 56.0271
v -59.10802 0.2585521 56.0271
v -60.09198 0.2585521 55.94658
v -59.10802 0.2585521 55.94658
v -60.09198 0.3404348 55.94658
v -59.10802 0.3404348 55.94658
v -60.09198 0.3404348 55.86605
v -59.10802 0.3404348 55.86605
v -60.09198 0.4223174 55.86605
v -59.10802 0.4223174 55.86605
v -60.09198 0.4223174 55.78553
v -59.10802 0.4223174 55.78553
v -60.09198 0.5042 55.78553
v -59.10802 0.5042 55.78553
v -60.09198 0.5042 55.705
v -59.10802 0.5042 55.705
v -60.09198 0.5860826 55.705
v -59.10802 0.5860826 55.705
v -60.09198 0.5860826 55.62448
v -59.10802 0.5860826 55.62448
v -60.09198 0.6679652 55.62448
v -59.10802 0.6679652 55.62448
v -60.09198 0.6679652 55.54395
v -59.10802 0.6679652 55.54395
v -60.09198 0.7498478 55.54395
v -59.10802 0.7498478 55.54395
v -60.09198 0.7498478 55.46343
v -59.10802 0.7498478 55.46343
v -60.09198 0.8317304 55.46343
v -59.10802 0.8317304 55.46343
v -60.09198 0.8317304 55.3829
v -59.10802 0.8317304 55.3829
v -60.09198 0.9136131 55.3829
v -59.10802 0.9136131 55.3829
v -60.09198 0.9136131 55.30238
v -59.10802 0.9136131 55.30238
v -60.09198 0.9954957 55.30238
v -59.10802 0.9954957 55.30238
v -60.09198 0.9954957 55.22185
v -59.10802 0.9954957 55.22185
v -59.10802 0.01290428 56.10762
v -59.10802 0.01290428 56.0271
v -59.10802 0.01290428 55.94658
v -59.10802 0.01290428 55.86605
v -59.10802 0.01290428 55.78553
v -59.10802 0.01290428 55.705
v -59.10802 0.01290428 55.62448
v -59.10802 0.01290428 55.54395
v -59.10802 0.01290428 55.46343
v -59.10802 0.01290428 55.3829
v -59.10802 0.01290428 55.30238
v -59.10802 0.01290428 55.22185
v -60.09198 0.01290428 56.10762
v -60.09198 0.01290428 56.0271
v -60.09198 0.01290428 55.94658
v -60.09198 0.01290428 55.86605
v -60.09198 0.01290428 55.78553
v -60.09198 0.01290428 55.705
v -60.09198 0.01290428 55.62448
v -60.09198 0.01290428 55.54395
v -60.09198 0.01290428 55.46343
v -60.09198 0.01290428 55.3829
v -60.09198 0.01290428 55.30238
v -60.09198 0.01290428 55.22185

vt -0.5065136 -0.5073106
vt 0.5065136 -0.5073106
vt -0.5065136 -0.4227588
vt 0.5065136 -0.4227588
vt 0.5065136 0.7239571
vt -0.5065136 0.7239571
vt 0.5065136 0.6032975
vt -0.5065136 0.6032975
vt -0.5065136 -0.338207
vt 0.5065136 -0.338207
vt 0.5065136 0.482638
vt -0.5065136 0.482638
vt -0.5065136 -0.2536553
vt 0.5065136 -0.2536553
vt 0.5065136 0.3619785
vt -0.5065136 0.3619785
vt -0.5065136 -0.1691035
vt 0.5065136 -0.1691035
vt 0.5065136 0.241319
vt -0.5065136 0.241319
vt -0.5065136 -0.08455177
vt 0.5065136 -0.08455177
vt 0.5065136 0.1206595
vt -0.5065136 0.1206595
vt -0.5065136 0
vt 0.5065136 0
vt -0.5065136 0.08455174
vt 0.5065136 0.08455174
vt 0.5065136 -0.1206595
vt -0.5065136 -0.1206595
vt -0.5065136 0.1691035
vt 0.5065136 0.1691035
vt 0.5065136 -0.241319
vt -0.5065136 -0.241319
vt -0.5065136 0.2536553
vt 0.5065136 0.2536553
vt 0.5065136 -0.3619785
vt -0.5065136 -0.3619785
vt -0.5065136 0.338207
vt 0.5065136 0.338207
vt 0.5065136 -0.482638
vt -0.5065136 -0.482638
vt -0.5065136 0.4227588
vt 0.5065136 0.4227588
vt 0.5065136 -0.6032976
vt -0.5065136 -0.6032976
vt -0.5065136 0.5073106
vt 0.5065136 0.5073106
vt 0.5065136 -0.7239571
vt -0.5065136 -0.7239571
vt -0.7239571 -0.5073106
vt -0.6032975 -0.5073106
vt -0.7239571 -0.4227588
vt -0.6032975 -0.4227588
vt -0.482638 -0.5073106
vt -0.482638 -0.338207
vt -0.6032975 -0.338207
vt -0.3619785 -0.5073106
vt -0.3619785 -0.2536553
vt -0.482638 -0.2536553
vt -0.241319 -0.5073106
vt -0.241319 -0.1691035
vt -0.3619785 -0.1691035
vt -0.1206595 -0.5073106
vt -0.1206595 -0.08455178
vt -0.241319 -0.08455178
vt 0 -0.5073106
vt 0 0
vt -0.1206595 0
vt 0.1206595 -0.5073106
vt 0.1206595 0.08455175
vt 0 0.08455175
vt 0.2413191 -0.5073106
vt 0.2413191 0.1691036
vt 0.1206595 0.1691036
vt 0.3619785 -0.5073106
vt 0.3619785 0.2536553
vt 0.2413191 0.2536553
vt 0.482638 -0.5073106
vt 0.482638 0.338207
vt 0.3619785 0.338207
vt 0.6032976 -0.5073106
vt 0.6032976 0.4227588
vt 0.482638 0.4227588
vt 0.7239571 -0.5073106
vt 0.7239571 0.5073106
vt 0.6032976 0.5073106
vt 0.7239571 -0.4227588
vt 0.6032975 -0.4227588
vt 0.482638 -0.338207
vt 0.6032975 -0.338207
vt 0.3619785 -0.2536553
vt 0.482638 -0.2536553
vt 0.241319 -0.1691035
vt 0.3619785 -0.1691035
vt 0.1206595 -0.08455178
vt 0.241319 -0.08455178
vt 0.1206595 0
vt -0.1206595 0.08455175
vt -0.2413191 0.1691036
vt -0.1206595 0.1691036
vt -0.3619785 0.2536553
vt -0.2413191 0.2536553
vt -0.482638 0.338207
vt -0.3619785 0.338207
vt -0.6032976 0.4227588
vt -0.482638 0.4227588
vt -0.7239571 0.5073106
vt -0.6032976 0.5073106

vn 0 -1.481864E-17 0.6673723
vn 0 0.9684318 2.150351E-17
vn 0.9713 0 0
vn -0.9713 0 0
vn 0 1.481864E-17 -0.6673723

usemtl ProBuilderDefault
f 10/56/3 8/57/3 6/54/3
f 14/59/3 12/60/3 10/56/3
f 18/62/3 16/63/3 14/59/3
f 22/65/3 20/66/3 18/62/3
f 26/68/3 24/69/3 22/65/3
f 30/71/3 28/72/3 26/68/3
f 34/74/3 32/75/3 30/71/3
f 38/77/3 36/78/3 34/74/3
f 42/80/3 40/81/3 38/77/3
f 46/83/3 44/84/3 42/80/3
f 50/86/3 48/87/3 46/83/3
f 5/89/4 7/91/4 9/90/4
f 9/90/4 11/93/4 13/92/4
f 13/92/4 15/95/4 17/94/4
f 17/94/4 19/97/4 21/96/4
f 21/96/4 23/98/4 25/68/4
f 25/68/4 27/72/4 29/99/4
f 29/99/4 31/101/4 33/100/4
f 33/100/4 35/103/4 37/102/4
f 37/102/4 39/105/4 41/104/4
f 41/104/4 43/107/4 45/106/4
f 45/106/4 47/109/4 49/108/4
f 2/2/1 4/4/1 3/3/1
f 3/3/1 1/1/1 2/2/1
f 4/6/2 6/8/2 5/7/2
f 5/7/2 3/5/2 4/6/2
f 6/4/1 8/10/1 7/9/1
f 7/9/1 5/3/1 6/4/1
f 8/8/2 10/12/2 9/11/2
f 9/11/2 7/7/2 8/8/2
f 10/10/1 12/14/1 11/13/1
f 11/13/1 9/9/1 10/10/1
f 12/12/2 14/16/2 13/15/2
f 13/15/2 11/11/2 12/12/2
f 14/14/1 16/18/1 15/17/1
f 15/17/1 13/13/1 14/14/1
f 16/16/2 18/20/2 17/19/2
f 17/19/2 15/15/2 16/16/2
f 18/18/1 20/22/1 19/21/1
f 19/21/1 17/17/1 18/18/1
f 20/20/2 22/24/2 21/23/2
f 21/23/2 19/19/2 20/20/2
f 22/22/1 24/26/1 23/25/1
f 23/25/1 21/21/1 22/22/1
f 24/24/2 26/25/2 25/26/2
f 25/26/2 23/23/2 24/24/2
f 26/26/1 28/28/1 27/27/1
f 27/27/1 25/25/1 26/26/1
f 28/25/2 30/30/2 29/29/2
f 29/29/2 27/26/2 28/25/2
f 30/28/1 32/32/1 31/31/1
f 31/31/1 29/27/1 30/28/1
f 32/30/2 34/34/2 33/33/2
f 33/33/2 31/29/2 32/30/2
f 34/32/1 36/36/1 35/35/1
f 35/35/1 33/31/1 34/32/1
f 36/34/2 38/38/2 37/37/2
f 37/37/2 35/33/2 36/34/2
f 38/36/1 40/40/1 39/39/1
f 39/39/1 37/35/1 38/36/1
f 40/38/2 42/42/2 41/41/2
f 41/41/2 39/37/2 40/38/2
f 42/40/1 44/44/1 43/43/1
f 43/43/1 41/39/1 42/40/1
f 44/42/2 46/46/2 45/45/2
f 45/45/2 43/41/2 44/42/2
f 46/44/1 48/48/1 47/47/1
f 47/47/1 45/43/1 46/44/1
f 48/46/2 50/50/2 49/49/2
f 49/49/2 47/45/2 48/46/2
f 51/52/3 6/54/3 4/53/3
f 4/53/3 2/51/3 51/52/3
f 52/55/3 10/56/3 6/54/3
f 6/54/3 51/52/3 52/55/3
f 53/58/3 14/59/3 10/56/3
f 10/56/3 52/55/3 53/58/3
f 54/61/3 18/62/3 14/59/3
f 14/59/3 53/58/3 54/61/3
f 55/64/3 22/65/3 18/62/3
f 18/62/3 54/61/3 55/64/3
f 56/67/3 26/68/3 22/65/3
f 22/65/3 55/64/3 56/67/3
f 57/70/3 30/71/3 26/68/3
f 26/68/3 56/67/3 57/70/3
f 58/73/3 34/74/3 30/71/3
f 30/71/3 57/70/3 58/73/3
f 59/76/3 38/77/3 34/74/3
f 34/74/3 58/73/3 59/76/3
f 60/79/3 42/80/3 38/77/3
f 38/77/3 59/76/3 60/79/3
f 61/82/3 46/83/3 42/80/3
f 42/80/3 60/79/3 61/82/3
f 62/85/3 50/86/3 46/83/3
f 46/83/3 61/82/3 62/85/3
f 3/88/4 5/89/4 63/82/4
f 63/82/4 1/85/4 3/88/4
f 5/89/4 9/90/4 64/79/4
f 64/79/4 63/82/4 5/89/4
f 9/90/4 13/92/4 65/76/4
f 65/76/4 64/79/4 9/90/4
f 13/92/4 17/94/4 66/73/4
f 66/73/4 65/76/4 13/92/4
f 17/94/4 21/96/4 67/70/4
f 67/70/4 66/73/4 17/94/4
f 21/96/4 25/68/4 68/67/4
f 68/67/4 67/70/4 21/96/4
f 25/68/4 29/99/4 69/64/4
f 69/64/4 68/67/4 25/68/4
f 29/99/4 33/100/4 70/61/4
f 70/61/4 69/64/4 29/99/4
f 33/100/4 37/102/4 71/58/4
f 71/58/4 70/61/4 33/100/4
f 37/102/4 41/104/4 72/55/4
f 72/55/4 71/58/4 37/102/4
f 41/104/4 45/106/4 73/52/4
f 73/52/4 72/55/4 41/104/4
f 45/106/4 49/108/4 74/51/4
f 74/51/4 73/52/4 45/106/4
f 74/2/5 49/48/5 50/47/5
f 50/47/5 62/1/5 74/2/5

