# ProBuilder 6.0.5
# https://unity3d.com/unity/features/worldbuilding/probuilder
# 28/04/2025 12:13:56

mtllib ./ProBuilder_Arch.mtl
o ProBuilder Arch

g ProBuilder Arch
v -60.0995 0.001939356 55.20587
v -59.99007 0.001939356 55.20587
v -60.0995 0.001939356 56.19413
v -59.99007 0.001939356 56.19413
v -60.08248 0.2597545 56.19413
v -60.08248 0.2597545 55.20587
v -59.97678 0.2304329 56.19413
v -59.97678 0.2304329 55.20587
v -60.03258 0.5000001 56.19413
v -60.03258 0.5000001 55.20587
v -59.93781 0.443355 56.19413
v -59.93781 0.443355 55.20587
v -59.9532 0.7063035 56.19413
v -59.9532 0.7063035 55.20587
v -59.87582 0.6261954 56.19413
v -59.87582 0.6261954 55.20587
v -59.84975 0.8646058 56.19413
v -59.84975 0.8646058 55.20587
v -59.79503 0.7664937 56.19413
v -59.79503 0.7664937 55.20587
v -59.72928 0.9641187 56.19413
v -59.72928 0.9641187 55.20587
v -59.70095 0.8546889 56.19413
v -59.70095 0.8546889 55.20587
v -59.6 0.9980607 56.19413
v -59.6 0.9980607 55.20587
v -59.6 0.8847707 56.19413
v -59.6 0.8847707 55.20587
v -59.47072 0.9641187 56.19413
v -59.47072 0.9641187 55.20587
v -59.49904 0.8546889 56.19413
v -59.49904 0.8546889 55.20587
v -59.35025 0.8646058 56.19413
v -59.35025 0.8646058 55.20587
v -59.40496 0.7664937 56.19413
v -59.40496 0.7664937 55.20587
v -59.2468 0.7063035 56.19413
v -59.2468 0.7063035 55.20587
v -59.32418 0.6261954 56.19413
v -59.32418 0.6261954 55.20587
v -59.16742 0.5000001 56.19413
v -59.16742 0.5000001 55.20587
v -59.26219 0.4433551 56.19413
v -59.26219 0.4433551 55.20587
v -59.11752 0.2597546 56.19413
v -59.11752 0.2597546 55.20587
v -59.22322 0.230433 56.19413
v -59.22322 0.230433 55.20587
v -59.1005 0.001939255 56.19413
v -59.1005 0.001939255 55.20587
v -59.20993 0.001939288 56.19413
v -59.20993 0.001939288 55.20587

vt -0.4564552 -0.4222984
vt -0.3564552 -0.4222984
vt -0.4564552 0.4222984
vt -0.3564552 0.4222984
vt 0.4222984 -0.469734
vt 0.4222984 -0.2416322
vt -0.4222984 -0.469734
vt -0.4222984 -0.2416322
vt -0.4222984 -0.2582112
vt -0.4222984 -0.4602656
vt 0.4222984 -0.2582112
vt 0.4222984 -0.4602656
vt 0.4222984 -0.3000124
vt 0.4222984 -0.08310269
vt -0.4222984 -0.3000124
vt -0.4222984 -0.08310269
vt -0.4222984 -0.1065931
vt -0.4222984 -0.2978812
vt 0.4222984 -0.1065931
vt 0.4222984 -0.2978812
vt 0.4222984 -0.1462869
vt 0.4222984 0.04973125
vt -0.4222984 -0.1462869
vt -0.4222984 0.04973125
vt -0.4222984 0.02162916
vt -0.4222984 -0.149415
vt 0.4222984 0.02162916
vt 0.4222984 -0.149415
vt 0.4222984 -0.03003371
vt 0.4222984 0.1386727
vt -0.4222984 -0.03003371
vt -0.4222984 0.1386727
vt -0.4222984 0.1107928
vt -0.4222984 -0.03338199
vt 0.4222984 0.1107928
vt 0.4222984 -0.03338199
vt -0.02232673 0.4222984
vt -0.163164 0.4222984
vt -0.02232673 -0.4222984
vt -0.163164 -0.4222984
vt 0.1417628 0.4222984
vt 0.02578286 0.4222984
vt 0.1417628 -0.4222984
vt 0.02578286 -0.4222984
vt 0.01380861 0.4222984
vt -0.1080705 0.4222984
vt 0.01380861 -0.4222984
vt -0.1080705 -0.4222984
vt 0.09393749 0.4222984
vt -0.002065048 0.4222984
vt 0.09393749 -0.4222984
vt -0.002065048 -0.4222984
vt 0.1080705 0.4222984
vt -0.01380854 0.4222984
vt 0.1080705 -0.4222984
vt -0.01380854 -0.4222984
vt 0.002064996 0.4222984
vt -0.0939375 0.4222984
vt 0.002064996 -0.4222984
vt -0.0939375 -0.4222984
vt 0.1631639 0.4222984
vt 0.02232658 0.4222984
vt 0.1631639 -0.4222984
vt 0.02232658 -0.4222984
vt -0.02578277 0.4222984
vt -0.1417628 0.4222984
vt -0.02578277 -0.4222984
vt -0.1417628 -0.4222984
vt 0.3564554 -0.4222984
vt 0.4564553 -0.4222984
vt 0.3564554 0.4222984
vt 0.4564553 0.4222984
vt 0.4564552 -0.4396334
vt 0.4409019 -0.2120624
vt 0.3564552 -0.4396334
vt 0.3443093 -0.2379443
vt -0.4409019 -0.2120624
vt -0.4564552 -0.4396334
vt -0.3443093 -0.2379443
vt -0.3564552 -0.4396334
vt 0.3953018 2.980232E-08
vt 0.3086993 -0.04999998
vt -0.3953018 2.980232E-08
vt -0.3086993 -0.04999998
vt 0.3227626 0.1821021
vt 0.2520519 0.1113914
vt -0.3227626 0.1821021
vt -0.2520519 0.1113914
vt 0.2282276 0.321834
vt 0.1782276 0.2352315
vt -0.2282276 0.321834
vt -0.1782276 0.2352315
vt 0.1181393 0.4096732
vt 0.09225742 0.3130805
vt -0.1181393 0.4096732
vt -0.09225742 0.3130805
vt -1.995229E-08 0.4396334
vt -1.558115E-08 0.3396334

vn 0 -1.1329 -2.515544E-17
vn -1.091753 0.07724793 1.715249E-18
vn -1.08359 0.1581137 3.510829E-18
vn 1.085938 -0.1397826 -3.103797E-18
vn 1.092321 -0.0681011 -1.512148E-18
vn -1.046888 0.3298582 7.324325E-18
vn 1.056841 -0.2938794 -6.525435E-18
vn -0.967106 0.530115 1.177092E-17
vn 0.9912027 -0.4800476 -1.06592E-17
vn -0.8036089 0.7689689 1.707454E-17
vn 0.8465816 -0.7178503 -1.593948E-17
vn -0.4867058 1.014679 2.25304E-17
vn 0.5323508 -0.9898078 -2.197815E-17
vn 6.729012E-08 1.1329 2.515544E-17
vn 0.4867057 1.014679 2.25304E-17
vn -0.5323507 -0.9898078 -2.197815E-17
vn 0.8036088 0.7689689 1.707454E-17
vn -0.8465815 -0.7178503 -1.593948E-17
vn 0.9671062 0.530115 1.177092E-17
vn -0.9912027 -0.4800476 -1.06592E-17
vn 1.046888 0.3298582 7.324325E-18
vn -1.056841 -0.2938795 -6.525436E-18
vn 1.08359 0.1581136 3.510828E-18
vn -1.075171 -0.2108997 -4.682914E-18
vn 1.091753 0.07724787 1.715247E-18
vn -1.092321 -0.06810106 -1.512147E-18
vn 0 2.598144E-17 -1.1701
vn 0 -2.598144E-17 1.1701

usemtl ProBuilderDefault
f 1/1/1 2/2/1 4/4/1 3/3/1
f 3/5/2 5/6/3 6/8/3 1/7/2
f 7/9/4 4/10/5 2/12/5 8/11/4
f 5/13/3 9/14/6 10/16/6 6/15/3
f 11/17/7 7/18/4 8/20/4 12/19/7
f 9/21/6 13/22/8 14/24/8 10/23/6
f 15/25/9 11/26/7 12/28/7 16/27/9
f 13/29/8 17/30/10 18/32/10 14/31/8
f 19/33/11 15/34/9 16/36/9 20/35/11
f 17/37/10 21/38/12 22/40/12 18/39/10
f 23/41/13 19/42/11 20/44/11 24/43/13
f 21/45/12 25/46/14 26/48/14 22/47/12
f 27/49/1 23/50/13 24/52/13 28/51/1
f 25/53/14 29/54/15 30/56/15 26/55/14
f 31/57/16 27/58/1 28/60/1 32/59/16
f 29/61/15 33/62/17 34/64/17 30/63/15
f 35/65/18 31/66/16 32/68/16 36/67/18
f 33/32/17 37/31/19 38/29/19 34/30/17
f 39/36/20 35/35/18 36/33/18 40/34/20
f 37/24/19 41/23/21 42/21/21 38/22/19
f 43/28/22 39/27/20 40/25/20 44/26/22
f 41/16/21 45/15/23 46/13/23 42/14/21
f 47/20/24 43/19/22 44/17/22 48/18/24
f 45/8/23 49/7/25 50/5/25 46/6/23
f 51/12/26 47/11/26 48/9/26 52/10/26
f 52/69/1 50/70/1 49/72/1 51/71/1
f 1/73/27 6/74/27 8/76/27 2/75/27
f 5/77/28 3/78/28 4/80/28 7/79/28
f 6/74/27 10/81/27 12/82/27 8/76/27
f 9/83/28 5/77/28 7/79/28 11/84/28
f 10/81/27 14/85/27 16/86/27 12/82/27
f 13/87/28 9/83/28 11/84/28 15/88/28
f 14/85/27 18/89/27 20/90/27 16/86/27
f 17/91/28 13/87/28 15/88/28 19/92/28
f 18/89/27 22/93/27 24/94/27 20/90/27
f 21/95/28 17/91/28 19/92/28 23/96/28
f 22/93/27 26/97/27 28/98/27 24/94/27
f 25/97/28 21/95/28 23/96/28 27/98/28
f 26/97/27 30/95/27 32/96/27 28/98/27
f 29/93/28 25/97/28 27/98/28 31/94/28
f 30/95/27 34/91/27 36/92/27 32/96/27
f 33/89/28 29/93/28 31/94/28 35/90/28
f 34/91/27 38/87/27 40/88/27 36/92/27
f 37/85/28 33/89/28 35/90/28 39/86/28
f 38/87/27 42/83/27 44/84/27 40/88/27
f 41/81/28 37/85/28 39/86/28 43/82/28
f 42/83/27 46/77/27 48/79/27 44/84/27
f 45/74/28 41/81/28 43/82/28 47/76/28
f 46/77/27 50/78/27 52/80/27 48/79/27
f 49/73/28 45/74/28 47/76/28 51/75/28

