# ProBuilder 6.0.5
# https://unity3d.com/unity/features/worldbuilding/probuilder
# 28/04/2025 11:51:28

mtllib ./ProBuilder_Cube.mtl
o ProBuilder Cube

g ProBuilder Cube
v -86.01031 2.928226 29.84289
v -87.0095 2.928226 29.84289
v -86.01031 3.926157 29.84289
v -87.0095 3.926157 29.84289
v -87.0095 2.928226 28.84451
v -87.0095 3.926157 28.84451
v -86.01031 2.928226 28.84451
v -86.01031 3.926157 28.84451

vt 3.013718 0.3321032
vt 0 0.3321032
vt 3.013718 1
vt 0 1
vt 2.268585 0.3321032
vt 2.268585 1
vt 0 -1.268585
vt 3.013718 -1.268585

vn -2.22288E-41 -9.771899E-18 0.4400872
vn -0.3315453 1.508363E-24 1.674692E-41
vn 2.22288E-41 9.771899E-18 -0.4400872
vn 0.3315453 -1.508363E-24 -1.674692E-41
vn 6.79758E-24 1.49414 3.317658E-17
vn -6.79758E-24 -1.49414 -3.317658E-17

usemtl ProBuilderDefault
f 3/3/1 4/4/1 2/2/1 1/1/1
f 4/6/2 6/4/2 5/2/2 2/5/2
f 6/3/3 8/4/3 7/2/3 5/1/3
f 8/6/4 3/4/4 1/2/4 7/5/4
f 8/7/5 6/8/5 4/3/5 3/4/5
f 1/3/6 2/4/6 5/7/6 7/8/6

