# ProBuilder 6.0.5
# https://unity3d.com/unity/features/worldbuilding/probuilder
# 28/04/2025 12:00:34

mtllib ./ProBuilder_Plane.mtl
o ProBuilder Plane

g ProBuilder Plane
v -54.61109 1 50.71426
v -54.61109 1 55.7053
v -59.5934 1 50.71426
v -59.5934 1 55.7053
v -54.61109 1 60.69634
v -59.5934 1 60.69634
v -64.57571 1 50.71426
v -64.57571 1 55.7053
v -64.57571 1 60.69634

vt -1.111589 -0.7512722
vt -1.111589 0
vt 0 -0.7512722
vt 0 0
vt -1.111589 0.7512722
vt 0 0.7512722
vt 1.111589 -0.7512722
vt 1.111589 0
vt 1.111589 0.7512722

vn 0 1 2.220446E-17

usemtl ProBuilderDefault
f 3/3/1 4/4/1 2/2/1 1/1/1
f 4/4/1 6/6/1 5/5/1 2/2/1
f 7/7/1 8/8/1 4/4/1 3/3/1
f 8/8/1 9/9/1 6/6/1 4/4/1

